<svg fill="#009ef7" xmlns="http://www.w3.org/2000/svg" viewBox="0 0 143.2 233.17">
    <path class="cls-1" d="M34.89,29.23c1.33-.93,3.39-2.15,6.18-3.65l24.19-13.22c2.67-1.51,4.7-3.19,6.09-5.05,1.39-1.85,2.55-4,3.48-6.44l-1.57-.87c-.35,.23-.84,.52-1.48,.87-.64,.35-1.42,.81-2.35,1.39l-23.84,13.4c-1.39,.81-3.19,1.91-5.39,3.31-2.2,1.39-4.23,3.1-6.09,5.13-1.85,2.03-3.02,4.32-3.48,6.87l1.22,.87c.7-.81,1.71-1.68,3.04-2.61Z"/>
    <path class="cls-1" d="M82.91,227.25c8.87-3.94,17.02-9.48,24.45-16.62,7.42-7.13,14.12-15.49,20.1-25.06,5.97-9.57,11.22-19.98,15.75-31.23l-5.39-1.57c-8.82,17.05-19.17,29.58-31.06,37.58-11.89,8-26.13,12.01-42.72,12.01-9.28,0-17.4-1.68-24.36-5.05-6.96-3.37-12.38-8.06-16.27-14.09-3.89-6.03-5.83-13.11-5.83-21.23,0-11.02,2.7-20.71,8.09-29.06s12.99-16.12,22.79-23.32c9.8-7.19,21.31-14.44,34.54-21.75,1.04-.58,2.32-1.8,3.83-3.65,1.51-1.85,2.9-3.86,4.18-6,1.28-2.15,2.09-3.8,2.44-4.96l-2.26-1.91c-5.92,4.06-10.67,7.22-14.27,9.48-3.6,2.26-6.5,3.91-8.7,4.96-2.2,1.04-4.03,1.68-5.48,1.91-1.45,.23-2.87,.35-4.26,.35-5.11,0-9.69-1.13-13.75-3.39-4.06-2.26-6.09-5.42-6.09-9.48s1.91-7.57,5.74-10.53,8.41-4.44,13.75-4.44c4.76,0,8.47,1.33,11.14,4l1.57,.17c3.25-1.85,4.87-5.1,4.87-9.74,0-2.9-1.1-5.31-3.31-7.22-2.2-1.91-5.05-2.87-8.53-2.87-4.64,0-9.05,1.42-13.22,4.26-4.18,2.84-8.64,6.76-13.4,11.74-6.5,6.96-10.96,12.79-13.4,17.49s-3.65,8.96-3.65,12.79c0,4.76,1.45,8.82,4.35,12.18,2.9,3.37,6.5,5.68,10.79,6.96C11.77,130.05,0,153.13,0,179.23c0,11.37,2.32,21.08,6.96,29.14,4.64,8.06,11.02,14.21,19.14,18.44,8.12,4.23,17.4,6.35,27.84,6.35s20.1-1.97,28.97-5.92Z"/>
</svg>