<svg  fill="#009ef7" xmlns="http://www.w3.org/2000/svg" viewBox="0 0 196.43 126.68">
    <path class="cls-1" d="M91.04,16.78c1.95-1.78,2.93-4.15,2.93-7.09s-.98-5.23-2.93-7.01-4.94-2.68-8.96-2.68H15.46c-3.57,0-6.5,.52-8.79,1.57-2.29,1.05-3.98,2.72-5.06,5.01C.54,8.88,0,11.84,0,15.46V109.09c0,5.44,1.2,9.37,3.61,11.81,2.41,2.44,6.36,3.65,11.85,3.65H84.03c3.96,0,6.95-.92,8.96-2.76,2.01-1.84,3.02-4.23,3.02-7.18s-1.01-5.51-3.02-7.35c-2.01-1.84-5-2.76-8.96-2.76H25.23v-35.43h52.34c3.91,0,6.8-.89,8.67-2.68,1.87-1.78,2.8-4.09,2.8-6.92s-.95-5.11-2.85-6.84c-1.9-1.73-4.77-2.59-8.62-2.59H25.23V19.46h56.84c4.02,0,7.01-.89,8.96-2.68Z"/>
    <path class="cls-1" d="M134.03,38.15c-.99-1.92-2.31-3.37-3.95-4.33-1.64-.96-3.48-1.44-5.52-1.44-3.34,0-5.98,1.09-7.9,3.27-1.93,2.18-2.89,5.48-2.89,9.9V112.57c0,4.53,1.08,8.02,3.23,10.45,2.15,2.43,4.9,3.65,8.24,3.65s6.27-1.18,8.45-3.53c2.18-2.35,3.27-5.88,3.27-10.58v-29.06c0-9.46,.57-15.92,1.7-19.37,1.59-4.3,4.08-7.69,7.48-10.15s7.16-3.7,11.3-3.7c6.34,0,10.58,2.03,12.7,6.07,2.12,4.05,3.19,9.9,3.19,17.54v38.66c0,4.53,1.08,8.02,3.23,10.45,2.15,2.43,4.96,3.65,8.41,3.65s6.16-1.19,8.28-3.57c2.12-2.38,3.19-5.89,3.19-10.54v-43.16c0-5.1-.23-9.29-.68-12.57-.45-3.28-1.44-6.34-2.97-9.18-2.38-4.87-5.98-8.64-10.79-11.3-4.81-2.66-10.28-3.99-16.4-3.99s-11.85,1.26-16.69,3.78c-4.84,2.52-9.3,6.47-13.38,11.85v-2.8c0-2.77-.5-5.13-1.49-7.05Z"/>
</svg>