<?xml version="1.0" standalone="no"?>
<!DOCTYPE svg PUBLIC "-//W3C//DTD SVG 20010904//EN"
 "http://www.w3.org/TR/2001/REC-SVG-20010904/DTD/svg10.dtd">
<svg version="1.0" xmlns="http://www.w3.org/2000/svg"
 width="2945.000000pt" height="2945.000000pt" viewBox="0 0 2945.000000 2945.000000"
 preserveAspectRatio="xMidYMid meet">
<metadata>
Created by potrace 1.14, written by Peter Selinger 2001-2017
</metadata>
<g transform="translate(0.000000,2945.000000) scale(0.100000,-0.100000)"
fill="#000000" stroke="none">
<path d="M14317 29444 c-1 -1 -78 -5 -172 -8 -157 -6 -203 -8 -400 -21 -38 -3
-104 -7 -145 -10 -41 -3 -97 -7 -125 -10 -48 -4 -139 -13 -221 -20 -79 -7
-191 -19 -274 -30 -41 -5 -96 -12 -165 -20 -27 -4 -61 -8 -75 -10 -14 -2 -47
-7 -75 -10 -27 -3 -61 -8 -75 -10 -44 -8 -84 -14 -125 -20 -42 -5 -77 -11
-135 -21 -19 -4 -42 -8 -50 -9 -54 -8 -111 -18 -145 -25 -22 -5 -60 -11 -85
-15 -25 -3 -53 -8 -63 -11 -11 -4 -29 -7 -40 -9 -91 -12 -615 -127 -822 -181
-55 -14 -107 -27 -116 -29 -49 -10 -453 -126 -634 -182 -636 -197 -1235 -427
-1840 -706 -111 -51 -564 -274 -585 -287 -8 -6 -22 -13 -30 -17 -28 -13 -398
-214 -465 -253 -533 -310 -922 -561 -1355 -874 -116 -84 -240 -176 -400 -300
-183 -141 -674 -548 -730 -606 -8 -8 -48 -44 -88 -79 -40 -35 -87 -78 -105
-95 -18 -17 -106 -101 -196 -186 -153 -144 -445 -436 -541 -540 -23 -25 -63
-67 -89 -95 -99 -105 -273 -299 -342 -380 -19 -22 -36 -42 -39 -45 -6 -5 -203
-240 -227 -270 -192 -238 -259 -324 -359 -456 -65 -87 -123 -163 -127 -169
-61 -75 -397 -563 -397 -576 0 -5 -4 -9 -9 -9 -5 0 -14 -13 -21 -30 -7 -16
-16 -30 -21 -30 -5 0 -9 -4 -9 -9 0 -4 -28 -50 -62 -102 -34 -52 -115 -182
-180 -289 -65 -107 -123 -202 -128 -210 -6 -8 -13 -22 -17 -30 -4 -8 -33 -59
-65 -113 -32 -53 -58 -100 -58 -102 0 -3 -10 -22 -23 -43 -13 -20 -48 -82 -77
-137 -30 -55 -73 -136 -97 -180 -77 -144 -282 -561 -363 -740 -256 -565 -478
-1146 -655 -1715 -63 -204 -124 -411 -130 -441 -2 -9 -13 -47 -24 -85 -11 -38
-31 -114 -45 -169 -14 -55 -29 -115 -35 -132 -5 -18 -8 -33 -6 -33 3 0 0 -11
-5 -25 -5 -14 -12 -36 -14 -48 -3 -12 -27 -121 -54 -242 -28 -121 -53 -233
-55 -250 -3 -16 -15 -76 -26 -133 -11 -56 -23 -117 -26 -135 -11 -59 -46 -262
-51 -292 -2 -16 -9 -55 -14 -85 -5 -30 -12 -77 -16 -105 -3 -27 -8 -59 -10
-69 -2 -11 -9 -56 -15 -100 -16 -116 -18 -135 -25 -194 -3 -29 -7 -62 -9 -73
-2 -11 -7 -50 -10 -87 -4 -37 -8 -78 -10 -92 -2 -14 -7 -54 -10 -90 -3 -36 -8
-81 -10 -100 -2 -19 -7 -71 -10 -115 -3 -44 -8 -96 -10 -115 -2 -19 -7 -82
-11 -140 -3 -58 -8 -123 -9 -145 -22 -328 -33 -1016 -20 -1355 11 -311 25
-542 50 -837 3 -32 7 -85 10 -118 3 -33 7 -76 9 -95 2 -19 7 -66 11 -105 4
-38 8 -77 10 -85 1 -8 6 -42 9 -75 8 -71 9 -74 41 -310 7 -55 35 -240 40 -265
2 -14 6 -41 9 -60 3 -19 9 -60 15 -90 6 -30 13 -68 16 -85 18 -104 29 -166 55
-295 16 -80 39 -188 50 -240 11 -52 25 -115 30 -140 5 -25 30 -128 55 -230 25
-102 48 -192 49 -200 26 -108 90 -336 171 -605 176 -584 447 -1299 685 -1810
23 -49 53 -115 67 -145 76 -167 308 -623 417 -819 25 -46 46 -85 46 -87 0 -3
11 -23 26 -45 14 -22 33 -55 43 -72 79 -140 159 -276 245 -415 56 -89 106
-170 111 -180 96 -161 472 -707 653 -947 186 -247 539 -684 647 -801 5 -6 30
-35 55 -65 25 -29 54 -62 65 -74 11 -11 38 -41 59 -65 227 -261 683 -722 990
-1003 49 -45 114 -104 144 -132 30 -27 64 -58 76 -68 113 -98 146 -127 181
-158 204 -182 957 -769 984 -769 5 0 11 -4 13 -8 7 -18 535 -376 758 -514 254
-158 326 -201 402 -242 29 -15 60 -34 69 -42 8 -8 18 -14 22 -14 3 0 32 -15
64 -34 178 -103 353 -196 628 -335 337 -169 485 -239 770 -363 165 -72 511
-214 555 -228 14 -5 86 -32 160 -60 188 -72 628 -223 770 -265 25 -7 149 -43
275 -80 127 -37 255 -73 285 -81 30 -8 62 -16 70 -18 8 -2 44 -12 80 -21 36
-9 72 -18 80 -20 8 -2 71 -17 140 -34 159 -38 473 -108 525 -116 22 -3 56 -10
75 -15 19 -5 51 -11 70 -14 19 -3 60 -10 90 -16 30 -6 69 -13 85 -16 203 -35
257 -44 295 -49 25 -3 59 -8 75 -12 17 -3 39 -7 50 -8 36 -4 339 -45 365 -50
14 -2 54 -7 90 -10 36 -3 76 -7 90 -10 14 -2 56 -7 94 -10 38 -4 83 -8 100
-10 29 -3 118 -11 231 -20 28 -2 80 -7 118 -10 121 -10 355 -22 617 -31 345
-12 954 -7 1230 11 36 2 115 6 176 10 61 3 127 7 145 9 19 3 79 7 134 11 55 4
107 8 115 10 8 2 56 6 105 9 50 4 104 9 120 11 39 5 107 13 170 20 28 3 82 10
120 15 39 5 90 12 115 15 42 5 90 12 150 20 14 2 45 7 70 10 25 3 83 12 130
20 47 8 103 17 125 20 38 5 54 8 115 20 14 3 41 7 60 10 19 2 69 12 110 20 41
9 89 18 105 21 17 2 53 9 80 15 28 6 61 13 75 15 14 3 45 10 70 15 25 6 56 13
70 15 14 3 75 16 135 30 61 14 121 28 135 30 116 22 706 182 960 261 331 103
848 284 1025 358 17 7 73 29 125 50 107 43 215 87 277 116 24 10 45 19 48 19
3 0 35 14 71 30 62 30 113 52 124 55 3 0 32 14 65 29 33 16 80 37 105 48 72
33 659 325 730 364 174 95 340 187 385 214 28 16 61 35 75 43 100 56 400 237
515 312 503 324 895 605 1325 949 69 55 127 102 130 105 3 4 25 22 50 42 25
20 55 45 66 55 12 11 44 37 70 59 58 49 291 252 320 280 12 11 63 58 114 105
265 241 696 674 916 919 27 30 56 62 64 70 40 43 347 399 427 496 86 105 336
423 378 480 21 29 99 133 113 150 14 18 276 389 307 435 17 25 33 47 38 48 4
2 7 7 7 12 0 5 24 44 54 87 29 43 101 152 158 243 153 243 262 424 410 685
116 204 210 383 362 690 341 687 608 1349 836 2070 85 266 225 767 265 945 2
8 24 103 49 211 25 107 47 209 50 225 3 16 17 85 31 154 24 118 45 227 66 350
5 30 11 65 13 76 2 12 7 39 10 60 4 22 11 64 16 94 5 30 12 78 16 105 3 28 8
59 10 70 2 11 7 40 10 65 3 25 7 56 9 70 2 14 7 48 10 75 4 28 8 61 10 75 2
14 9 70 15 125 6 55 13 111 15 125 3 14 7 57 10 95 3 39 8 86 10 105 4 34 7
72 21 230 7 83 9 119 19 295 4 66 9 138 10 160 7 89 18 552 18 730 0 173 -11
635 -18 745 -1 25 -6 99 -9 165 -4 66 -9 138 -11 160 -2 22 -6 81 -10 130 -3
50 -8 101 -10 115 -2 14 -7 66 -11 115 -3 50 -8 98 -10 107 -1 10 -5 48 -9 86
-3 38 -7 78 -9 88 -2 10 -7 48 -11 84 -4 36 -8 72 -10 80 -1 8 -6 40 -10 70
-3 30 -8 66 -10 80 -2 14 -8 59 -14 100 -16 115 -21 151 -31 205 -5 28 -12 68
-15 89 -3 21 -7 48 -10 60 -2 12 -7 37 -10 56 -2 19 -7 46 -10 60 -3 14 -8 41
-11 60 -2 19 -8 49 -11 65 -4 17 -8 37 -9 45 -2 8 -6 31 -9 50 -4 19 -9 44
-11 55 -11 63 -58 281 -88 415 -31 137 -68 287 -142 570 -2 8 -7 31 -12 50
-90 350 -330 1068 -505 1510 -213 539 -581 1319 -793 1683 -19 32 -34 60 -34
62 0 2 -19 36 -43 77 -24 40 -46 80 -50 88 -4 8 -17 31 -29 50 -11 19 -26 44
-32 55 -6 11 -52 86 -101 168 -50 81 -99 162 -109 180 -11 17 -49 77 -84 132
-36 55 -87 134 -113 175 -98 152 -379 554 -391 558 -4 2 -8 8 -8 12 0 7 -166
233 -227 310 -7 8 -67 85 -134 170 -103 131 -181 226 -341 416 -13 15 -43 50
-68 79 -25 28 -72 81 -105 119 -33 37 -69 78 -80 90 -388 430 -839 877 -1235
1222 -25 21 -47 41 -50 44 -3 3 -34 30 -70 60 -36 30 -67 58 -70 61 -3 3 -81
69 -175 145 -518 427 -1043 803 -1643 1176 -15 9 -38 23 -52 31 -14 7 -78 46
-143 85 -65 40 -119 72 -121 72 -2 0 -34 18 -70 40 -36 22 -68 40 -71 40 -3 0
-22 11 -43 23 -38 24 -95 56 -214 121 -38 20 -96 51 -130 70 -132 71 -690 346
-703 346 -2 0 -41 17 -87 39 -45 21 -132 60 -193 86 -60 26 -128 55 -150 65
-22 10 -69 30 -105 44 -36 15 -74 31 -85 36 -11 4 -54 22 -95 38 -41 16 -84
33 -95 37 -11 5 -22 9 -25 10 -3 0 -43 16 -90 34 -372 147 -1137 392 -1480
476 -8 2 -69 17 -135 34 -66 16 -160 39 -210 51 -49 12 -117 27 -150 35 -134
31 -369 80 -435 91 -19 3 -42 7 -52 10 -9 3 -40 9 -70 14 -29 5 -91 16 -138
25 -47 8 -101 18 -120 21 -19 3 -73 11 -120 19 -47 8 -105 17 -130 20 -25 3
-56 8 -70 10 -14 2 -45 7 -70 10 -25 3 -56 8 -70 10 -14 2 -50 7 -80 10 -30 3
-66 8 -80 10 -14 2 -50 7 -80 10 -30 3 -71 8 -90 10 -87 10 -139 16 -190 20
-30 3 -75 7 -100 10 -25 2 -79 7 -120 10 -41 3 -97 8 -125 10 -74 7 -259 18
-520 31 -121 6 -1003 13 -1008 8z"/>
</g>
</svg>
